# File created by Blade
# Date/Time:  Tue Jan 27 19:32:37 2015
# Frame Rate: 120.000 fps
#------------------------------------------------------
:FULLY-SPECIFIED
:DEGREES
2737
root 3.635409 32.237958 0.213610 -5.188955 3.303604 0.416544
Spine 1.650639 -11.931973 -0.864764
Head 23.045579 -23.655384 -4.954173
LeftShoulder -8.134042 -3.182833 27.192337
LeftArm -1.173831 40.196811 -101.450358
LeftForeArm 3.522915 0.000000 11.512360
LeftHand 10.161177 -0.000000 -5.064867
LeftHandThumb1 -26.253704 0.000000 33.147579
RightShoulder -27.300207 -24.384704 -26.917767
RightArm -22.178044 68.532669 44.781497
RightForeArm 21.247273 -0.000000 131.915928
RightHand 28.558515 -0.000000 -27.203533
RightHandThumb1 -24.326973 -0.000000 -32.862282
LeftUpLeg 12.566229 3.336061 -0.793043
LeftLeg 1.433636 -0.000000 -0.000000
LeftFoot -19.005495 14.007027 -22.321760
LeftToeBase 17.206006 -0.000000 -0.000000
RightUpLeg 11.171423 -9.558869 0.950303
RightLeg 1.783234 -0.000000 -0.000000
RightFoot -15.074096 -15.595499 14.624804
RightToeBase 10.875839 -0.000000 -0.000000
2738
root 3.630931 32.238678 0.216173 -5.201047 3.149606 0.420050
Spine 1.667486 -12.078644 -0.859474
Head 22.982822 -23.093607 -4.852751
LeftShoulder -8.165311 -3.176068 27.188321
LeftArm -1.186867 40.344832 -101.622289
LeftForeArm 3.452550 -0.000000 11.363160
LeftHand 10.122726 -0.000000 -4.908852
LeftHandThumb1 -26.253704 0.000000 33.147579
RightShoulder -27.347530 -24.396817 -26.930574
RightArm -22.369035 68.605620 44.800983
RightForeArm 21.189121 -0.000000 131.984164
RightHand 28.403034 -0.000000 -27.158332
RightHandThumb1 -24.326973 -0.000000 -32.862282
LeftUpLeg 12.629127 3.474792 -0.779414
LeftLeg 1.377591 -0.000000 -0.000000
LeftFoot -19.036036 14.101267 -22.247750
LeftToeBase 17.522735 -0.000000 -0.000000
RightUpLeg 11.142632 -9.436642 0.966480
RightLeg 1.837211 -0.000000 -0.000000
RightFoot -15.080378 -15.571010 14.637142
RightToeBase 10.814651 -0.000000 -0.000000
2739
root 3.625416 32.238010 0.216825 -5.205021 2.983752 0.394680
Spine 1.677885 -12.175257 -0.822960
Head 22.910239 -22.614973 -4.751353
LeftShoulder -8.178570 -3.136222 27.192642
LeftArm -1.139786 40.413150 -101.730989
LeftForeArm 3.684153 0.000000 11.253447
LeftHand 10.210239 -0.000000 -5.006197
LeftHandThumb1 -26.253704 0.000000 33.147579
RightShoulder -27.395793 -24.366828 -26.937575
RightArm -22.555254 68.700573 44.778990
RightForeArm 21.294966 -0.000000 132.037838
RightHand 28.600682 -0.000000 -27.210203
RightHandThumb1 -24.326973 -0.000000 -32.862282
LeftUpLeg 12.687881 3.542661 -0.742992
LeftLeg 1.314775 -0.000000 -0.000000
LeftFoot -19.086389 14.131018 -22.354057
LeftToeBase 17.584216 -0.000000 -0.000000
RightUpLeg 11.112949 -9.306537 1.015479
RightLeg 1.857925 -0.000000 -0.000000
RightFoot -15.053169 -15.577607 14.590198
RightToeBase 10.785748 -0.000000 -0.000000
2740
root 3.620406 32.238106 0.215845 -5.205132 2.797729 0.378962
Spine 1.691435 -12.223641 -0.795936
Head 22.824237 -22.181580 -4.656149
LeftShoulder -8.188124 -3.170561 27.188634
LeftArm -1.176176 40.570954 -101.882500
LeftForeArm 3.745520 -0.000000 11.216561
LeftHand 10.089904 -0.000000 -4.984006
LeftHandThumb1 -26.253704 0.000000 33.147579
RightShoulder -27.439787 -24.359886 -26.905583
RightArm -22.579386 68.781534 44.889783
RightForeArm 21.248849 -0.000000 132.099385
RightHand 28.641940 -0.000000 -27.327687
RightHandThumb1 -24.326973 -0.000000 -32.862282
LeftUpLeg 12.728786 3.649367 -0.715857
LeftLeg 1.281627 -0.000000 -0.000000
LeftFoot -19.111947 14.180021 -22.393489
LeftToeBase 17.524378 -0.000000 -0.000000
RightUpLeg 11.078479 -9.159431 1.051460
RightLeg 1.872924 -0.000000 -0.000000
RightFoot -15.032194 -15.532282 14.589180
RightToeBase 10.795426 -0.000000 -0.000000
2741
root 3.615399 32.238337 0.215044 -5.202008 2.605229 0.363324
Spine 1.692643 -12.235526 -0.769741
Head 22.748750 -21.794705 -4.561720
LeftShoulder -8.157144 -3.244233 27.195494
LeftArm -1.256210 40.671438 -102.061220
LeftForeArm 3.767938 -0.000000 11.159154
LeftHand 10.228881 0.000000 -4.976183
LeftHandThumb1 -26.253704 0.000000 33.147579
RightShoulder -27.473578 -24.358314 -26.863760
RightArm -22.574189 68.886202 45.014685
RightForeArm 21.178700 0.000000 132.142343
RightHand 28.565319 -0.000000 -27.196493
RightHandThumb1 -24.326973 -0.000000 -32.862282
LeftUpLeg 12.762589 3.751500 -0.692263
LeftLeg 1.255541 -0.000000 -0.000000
LeftFoot -19.150785 14.245726 -22.438909
LeftToeBase 17.560030 -0.000000 -0.000000
RightUpLeg 11.042276 -9.035641 1.086774
RightLeg 1.880457 -0.000000 -0.000000
RightFoot -15.004291 -15.493987 14.572701
RightToeBase 10.787036 -0.000000 -0.000000
